<?xml version="1.0" standalone="no"?>
<!DOCTYPE svg PUBLIC "-//W3C//DTD SVG 20010904//EN"
 "http://www.w3.org/TR/2001/REC-SVG-20010904/DTD/svg10.dtd">
<svg version="1.0" xmlns="http://www.w3.org/2000/svg"
 width="1600.000000pt" height="1600.000000pt" viewBox="0 0 1600.000000 1600.000000"
 preserveAspectRatio="xMidYMid meet">
<metadata>
Created by potrace 1.11, written by Peter Selinger 2001-2013
</metadata>
<g transform="translate(0.000000,1600.000000) scale(0.100000,-0.100000)"
fill="#000000" stroke="none">
<path d="M7657 15884 c-1 -1 -74 -5 -162 -9 -88 -3 -176 -8 -195 -10 -19 -2
-73 -6 -120 -10 -47 -3 -96 -8 -110 -10 -14 -2 -52 -6 -85 -10 -84 -9 -173
-21 -300 -40 -49 -8 -300 -52 -335 -59 -14 -3 -38 -8 -55 -11 -123 -24 -471
-112 -615 -155 -390 -117 -769 -261 -1125 -430 -94 -44 -418 -212 -465 -240
-104 -63 -274 -160 -281 -160 -4 0 -9 -4 -11 -8 -1 -4 -32 -26 -68 -47 -265
-160 -762 -535 -1019 -769 -289 -262 -509 -488 -766 -787 -142 -165 -375 -473
-508 -674 -48 -71 -90 -134 -95 -140 -4 -5 -27 -43 -52 -83 -258 -421 -473
-848 -625 -1237 -25 -66 -53 -133 -60 -150 -69 -149 -274 -852 -321 -1101 -2
-12 -13 -66 -24 -120 -12 -55 -23 -115 -26 -134 -3 -19 -7 -46 -10 -60 -7 -40
-42 -281 -48 -330 -13 -105 -25 -220 -31 -285 -3 -38 -8 -88 -10 -110 -19
-180 -25 -702 -11 -984 4 -90 9 -171 11 -180 1 -9 6 -58 9 -109 4 -51 9 -100
10 -110 2 -9 7 -48 11 -87 7 -74 9 -94 19 -162 3 -24 9 -62 12 -85 3 -24 10
-64 14 -90 5 -26 12 -69 15 -95 4 -26 10 -64 15 -83 5 -19 11 -52 14 -72 16
-104 100 -457 157 -658 44 -154 145 -469 168 -525 5 -11 41 -103 81 -204 126
-322 302 -689 459 -961 37 -64 71 -123 75 -131 47 -95 319 -500 464 -694 378
-501 750 -894 1262 -1329 14 -11 77 -62 140 -112 601 -476 1272 -863 1975
-1139 163 -64 479 -175 570 -200 28 -8 97 -28 155 -45 176 -51 561 -142 700
-164 19 -3 45 -8 56 -10 12 -2 39 -7 60 -10 35 -6 70 -12 128 -22 10 -2 44 -6
75 -9 31 -4 63 -8 71 -10 8 -2 42 -7 75 -10 33 -4 71 -8 85 -10 66 -9 167 -19
315 -30 295 -22 871 -22 1085 0 19 2 80 6 135 10 55 4 107 9 115 10 8 2 47 6
85 10 128 13 269 32 340 45 28 5 68 12 90 15 56 8 94 15 140 25 22 5 56 12 75
15 193 32 554 125 845 216 142 45 477 164 530 189 11 5 85 37 165 71 543 230
1120 563 1601 924 124 94 283 219 299 235 3 3 37 32 75 64 406 340 852 812
1179 1251 37 50 77 102 88 117 11 15 54 76 94 135 40 59 77 113 82 118 30 38
222 353 334 550 78 137 284 562 353 730 159 381 303 814 380 1140 36 152 74
323 79 356 3 20 8 42 10 50 5 13 14 63 21 116 2 12 6 34 9 50 3 15 8 48 12 73
3 24 7 47 9 50 1 3 6 32 9 65 4 33 9 71 11 85 2 14 6 48 9 75 4 28 9 68 12 90
7 57 12 106 19 220 4 55 9 103 11 106 5 8 17 408 17 544 0 115 -12 472 -17
545 -11 131 -18 218 -22 239 -2 14 -6 54 -9 90 -3 36 -10 91 -15 121 -5 30
-12 78 -15 105 -5 42 -20 136 -40 253 -125 710 -363 1437 -680 2072 -90 181
-111 221 -202 385 -135 243 -361 590 -541 830 -77 102 -245 314 -279 350 -10
11 -28 32 -39 47 -144 186 -622 664 -858 859 -17 13 -48 40 -70 60 -388 339
-1067 779 -1597 1032 -239 114 -297 139 -494 217 -88 34 -173 68 -190 75 -71
30 -405 138 -583 189 -245 70 -593 148 -832 186 -41 7 -84 14 -95 16 -11 2
-45 7 -75 10 -30 3 -57 7 -60 9 -3 2 -34 6 -70 9 -59 6 -89 10 -170 21 -14 2
-65 7 -114 10 -49 4 -103 8 -120 10 -88 12 -788 28 -799 19z m545 -1218 c86
-4 167 -9 180 -11 12 -2 59 -6 103 -10 44 -3 91 -7 105 -10 14 -2 48 -6 75 -9
57 -6 78 -9 230 -32 120 -18 127 -19 200 -34 28 -6 61 -12 75 -15 31 -6 93
-19 100 -20 3 -1 23 -5 45 -10 190 -38 749 -204 860 -255 11 -5 65 -27 120
-49 561 -220 1147 -558 1630 -940 356 -281 757 -672 1001 -976 26 -33 51 -62
54 -65 17 -13 236 -310 311 -420 81 -120 197 -301 241 -378 301 -525 535
-1078 663 -1567 8 -27 22 -84 33 -125 17 -65 54 -222 66 -285 3 -11 11 -54 20
-95 17 -86 42 -232 51 -305 3 -27 8 -66 11 -85 39 -279 49 -459 49 -855 0
-304 -6 -491 -20 -580 -2 -16 -7 -62 -10 -101 -3 -39 -7 -80 -9 -90 -2 -11 -7
-46 -10 -79 -4 -33 -16 -114 -26 -180 -19 -113 -22 -134 -35 -195 -2 -14 -6
-36 -9 -50 -34 -204 -158 -647 -256 -920 -23 -63 -45 -126 -50 -140 -46 -142
-290 -662 -389 -828 -17 -29 -31 -54 -31 -56 0 -3 -41 -73 -133 -226 -79 -132
-258 -387 -409 -585 -42 -55 -222 -270 -268 -319 -278 -303 -485 -502 -740
-710 -52 -43 -105 -86 -118 -97 -12 -10 -26 -19 -31 -19 -5 0 -11 -4 -13 -8
-6 -15 -209 -162 -381 -276 -313 -207 -647 -390 -961 -527 -78 -33 -155 -67
-172 -75 -237 -105 -781 -274 -1094 -339 -119 -25 -180 -36 -255 -49 -49 -9
-100 -18 -112 -20 -12 -3 -48 -7 -80 -11 -32 -3 -65 -8 -73 -10 -8 -2 -42 -6
-75 -10 -33 -3 -78 -8 -100 -11 -22 -2 -62 -6 -90 -9 -27 -2 -93 -8 -145 -12
-189 -16 -946 -8 -1049 12 -9 1 -50 6 -91 10 -41 4 -82 9 -91 10 -8 2 -40 6
-70 9 -68 7 -123 15 -163 21 -83 14 -259 47 -321 61 -38 8 -79 16 -90 18 -108
20 -416 106 -630 174 -415 134 -895 355 -1310 603 -112 66 -422 269 -458 299
-7 6 -61 47 -122 93 -60 45 -119 90 -130 99 -11 9 -67 56 -125 104 -268 221
-579 531 -800 794 -134 160 -204 248 -306 390 -375 518 -670 1082 -881 1680
-63 181 -173 548 -173 580 0 9 -6 36 -14 61 -14 45 -42 169 -51 224 -3 17 -9
50 -15 75 -10 50 -21 114 -26 145 -1 11 -5 32 -7 46 -3 15 -9 53 -13 85 -4 33
-9 61 -9 64 -1 3 -5 37 -9 75 -4 39 -9 81 -12 95 -2 14 -6 61 -10 104 -3 44
-8 91 -9 105 -21 165 -21 834 0 996 2 17 6 71 9 120 4 50 8 97 11 105 2 8 6
46 10 83 3 37 8 76 9 85 2 9 11 64 20 122 108 685 307 1306 616 1920 156 311
294 543 499 835 73 104 211 288 262 350 276 333 414 476 789 819 25 23 92 79
150 126 58 47 107 88 110 91 13 14 287 214 386 281 713 483 1523 823 2364 992
159 32 242 46 355 62 28 3 59 8 70 10 11 2 47 6 80 9 33 3 69 8 80 10 11 2 58
7 105 10 47 4 96 8 110 10 13 3 99 7 190 11 91 4 166 7 167 8 4 3 329 -2 465
-8z"/>
<path d="M5330 11748 c-89 -10 -235 -48 -355 -92 -111 -41 -389 -176 -475
-230 -307 -195 -445 -300 -614 -471 -99 -100 -146 -159 -193 -243 -105 -188
-60 -292 142 -327 32 -6 230 -6 280 -1 17 2 59 6 95 10 36 3 76 8 90 10 14 3
48 7 75 11 28 3 75 10 105 15 30 5 75 12 100 15 25 3 70 10 100 15 30 5 73 12
95 15 23 3 52 7 65 10 28 5 156 23 225 30 28 3 59 8 71 9 148 26 489 24 619
-4 22 -5 56 -11 75 -14 19 -3 107 -24 195 -46 395 -101 388 -100 473 -101 119
-1 166 54 165 196 -1 239 -160 557 -408 814 -278 289 -594 419 -925 379z"/>
<path d="M10160 11743 c-36 -7 -77 -15 -92 -18 -73 -14 -236 -90 -328 -153
-243 -165 -448 -415 -567 -692 -94 -217 -108 -414 -35 -483 63 -59 134 -54
457 28 140 36 279 70 308 76 28 5 63 12 77 14 14 3 34 7 46 9 124 25 401 25
599 0 22 -2 56 -6 75 -8 19 -2 112 -16 205 -30 94 -14 188 -28 210 -31 22 -3
62 -10 89 -16 27 -5 51 -7 53 -5 3 2 18 0 34 -4 16 -5 60 -12 97 -16 37 -3 69
-8 72 -9 3 -2 39 -6 80 -10 41 -4 89 -9 105 -11 61 -9 262 -5 310 6 64 13 93
28 127 62 34 33 42 66 34 125 -35 255 -545 708 -1101 977 -343 166 -637 231
-855 189z"/>
<path d="M12164 9983 c4 -26 9 -74 21 -228 16 -210 25 -485 30 -955 2 -201 6
-376 9 -390 3 -14 8 -42 11 -62 40 -287 208 -545 436 -671 156 -85 401 -124
582 -92 206 36 395 184 505 395 63 121 99 246 117 400 23 203 -12 393 -107
572 -216 406 -774 785 -1525 1037 -80 27 -84 27 -79 -6z"/>
<path d="M4045 9356 c-219 -77 -270 -99 -500 -212 -590 -289 -938 -635 -1041
-1034 -19 -75 -26 -284 -13 -375 54 -351 231 -611 489 -715 36 -15 81 -30 100
-34 19 -3 46 -8 60 -11 14 -3 59 -6 100 -7 436 -9 760 244 869 677 34 138 37
186 46 825 5 364 7 414 20 625 7 115 11 165 20 253 4 34 5 62 3 61 -2 0 -70
-24 -153 -53z"/>
<path d="M7757 8064 c-1 -1 -64 -5 -141 -9 -76 -4 -146 -8 -155 -10 -9 -1 -43
-6 -76 -9 -57 -7 -100 -13 -155 -21 -80 -13 -99 -16 -140 -25 -25 -5 -56 -12
-70 -15 -14 -2 -45 -9 -70 -16 -25 -6 -53 -12 -63 -14 -82 -17 -392 -121 -492
-165 -520 -229 -913 -524 -1274 -955 -255 -305 -495 -743 -628 -1144 -47 -144
-107 -372 -127 -486 -3 -16 -8 -39 -10 -51 -2 -12 -7 -45 -11 -75 -4 -30 -8
-56 -10 -59 -1 -3 -6 -36 -10 -75 -4 -38 -9 -83 -11 -100 -7 -52 -17 -325 -11
-325 2 0 58 23 123 51 106 45 470 174 521 183 11 3 51 14 89 25 97 29 418 105
549 131 61 12 119 24 130 26 21 4 311 52 355 59 79 11 110 16 150 20 25 3 61
7 80 10 153 21 429 49 610 61 52 3 111 7 130 9 282 27 1344 26 1680 0 71 -6
141 -11 270 -20 47 -3 96 -8 110 -10 14 -2 59 -7 100 -10 41 -3 86 -8 100 -10
14 -2 48 -7 75 -10 28 -3 66 -7 85 -10 19 -3 53 -7 75 -10 159 -19 420 -62
585 -95 52 -11 110 -22 129 -25 19 -3 38 -8 41 -10 4 -3 25 -7 46 -11 54 -8
296 -69 439 -111 240 -69 617 -205 650 -234 5 -5 15 -9 22 -9 23 0 4 325 -33
555 -3 17 -7 41 -9 55 -6 45 -16 94 -25 130 -5 19 -11 46 -14 60 -8 46 -44
184 -66 255 -12 39 -24 79 -27 90 -2 11 -8 29 -13 40 -4 11 -23 61 -40 110
-52 144 -156 367 -241 518 -82 145 -279 437 -329 487 -3 3 -32 37 -64 75 -32
39 -118 129 -190 200 -366 362 -812 635 -1294 791 -100 32 -236 72 -270 79 -9
2 -46 10 -82 18 -72 17 -220 43 -290 52 -25 3 -63 8 -85 11 -69 8 -116 13
-235 20 -109 6 -379 12 -383 8z"/>
</g>
</svg>
