<svg height="682.66669" viewBox="0 0 682.66669 682.66669" width="682.66669" xmlns="http://www.w3.org/2000/svg" xmlns:xlink="http://www.w3.org/1999/xlink"><clipPath id="a"><path clip-rule="evenodd" d="m2560 0c1413.85 0 2560 1146.15 2560 2560s-1146.15 2560-2560 2560-2560-1146.15-2560-2560 1146.15-2560 2560-2560z"/></clipPath><clipPath id="b"><path d="m0 0h5120v5120h-5120z"/></clipPath><clipPath id="c"><path clip-rule="evenodd" d="m3248.57 2735.96c-183.49 0-277.25-144.42-277.25-362 0-205.66 101.38-360.04 277.25-360.04 198.89 0 273.45 182.02 273.45 360.04-.14 185.9-93.84 362-273.51 362m-487.51 539.96h217.97v-522.15h3.85c59.28 98.87 183.55 160.21 294.46 160.21 311.63 0 462.74-245.35 462.74-544.05 0-274.84-133.84-533.97-426.43-533.97-133.85 0-277.25 33.54-342.29 168.09h-3.78v-140.51h-206.53v1412.35z"/></clipPath><clipPath id="d"><path d="m0 0h5120v5120h-5120z"/></clipPath><clipPath id="e"><path clip-rule="evenodd" d="m4543.89 2544.02c-17.22 124.62-105.15 191.92-225.61 191.92-112.87 0-271.54-61.35-271.54-371.91 0-170.13 72.64-350.15 261.97-350.15 126.18 0 214.11 87.14 235.18 233.51h217.97c-40.16-265.06-198.84-411.43-453.15-411.43-309.78 0-479.95 227.42-479.95 528.07 0 308.56 162.53 549.89 487.6 549.89 229.44 0 424.54-118.68 445.5-369.91h-217.61z"/></clipPath><clipPath id="f"><path d="m0 0h5120v5120h-5120z"/></clipPath><clipPath id="g"><path clip-rule="evenodd" d="m1998.95 1866.62h-1634.872l763.462 1409.3h1634.88z"/></clipPath><clipPath id="h"><path d="m0 0h5120v5120h-5120z"/></clipPath><g clip-path="url(#a)" transform="matrix(.13333333 0 0 -.13333333 0 682.66667)"><g clip-path="url(#b)"><path d="m0 0h5170v5170h-5170z"/></g></g><g clip-path="url(#c)" transform="matrix(.13333333 0 0 -.13333333 0 682.66667)"><g clip-path="url(#d)"><path d="m2710.99 1785.96h1079.03v1539.96h-1079.03z" fill="#fff"/></g></g><g clip-path="url(#e)" transform="matrix(.13333333 0 0 -.13333333 0 682.66667)"><g clip-path="url(#f)"><path d="m3778.76 1785.96h1033.1v1177.96h-1033.1z" fill="#fff"/></g></g><g clip-path="url(#g)" transform="matrix(.13333333 0 0 -.13333333 0 682.66667)"><g clip-path="url(#h)"><path d="m314.078 1816.62h2498.34v1509.3h-2498.34z" fill="#fff"/></g></g></svg>