<svg viewBox="0 0 64 64" xmlns="http://www.w3.org/2000/svg"><path d="m32 0a32 32 0 1 0 32 32 31.966 31.966 0 0 0 -32-32zm12.3 47.2a2.654 2.654 0 0 1 -1.4-.5 32.041 32.041 0 0 0 -16.6-4.3 48.082 48.082 0 0 0 -10.1 1.1 11.045 11.045 0 0 1 -1.6.3 2 2 0 0 1 -2-2 2.11 2.11 0 0 1 1.7-2.2 53.9 53.9 0 0 1 12-1.4 35.787 35.787 0 0 1 18.6 4.8 2.131 2.131 0 0 1 1.3 2.1 1.846 1.846 0 0 1 -1.9 2.1zm3.5-8.5a2.834 2.834 0 0 1 -1.6-.6 41.422 41.422 0 0 0 -20.3-5.1 43.3 43.3 0 0 0 -10.4 1.3 4.707 4.707 0 0 1 -1.6.4 2.476 2.476 0 0 1 -2.5-2.5 2.6 2.6 0 0 1 2-2.7 43.762 43.762 0 0 1 12.6-1.8 44.707 44.707 0 0 1 22.8 5.9 2.583 2.583 0 0 1 1.5 2.5 2.5 2.5 0 0 1 -2.5 2.6zm4-9.8a3.022 3.022 0 0 1 -1.6-.5c-5.9-3.5-14.9-5.4-23.5-5.4a49.826 49.826 0 0 0 -12.8 1.5 9.005 9.005 0 0 1 -1.6.3 3.031 3.031 0 0 1 -3-3.1 3.213 3.213 0 0 1 2.2-3.1 55.906 55.906 0 0 1 15.2-2c9.4 0 19.3 1.9 26.5 6.2a3.025 3.025 0 0 1 1.6 2.9 3.058 3.058 0 0 1 -3 3.2z" fill="#00d95f"/></svg>